' Copyright (C) 2019 - present Juergen Zimmermann, Hochschule Karlsruhe
'
' This program is free software: you can redistribute it and/or modify
' it under the terms of the GNU General Public License as published by
' the Free Software Foundation, either version 3 of the License, or
' (at your option) any later version.
'
' This program is distributed in the hope that it will be useful,
' but WITHOUT ANY WARRANTY; without even the implied warranty of
' MERCHANTABILITY or FITNESS FOR A PARTICULAR PURPOSE.  See the
' GNU General Public License for more details.
'
' You should have received a copy of the GNU General Public License
' along with this program.  If not, see <https://www.gnu.org/licenses/>.
@startuml Anwendungskern

!pragma useNewPackage
skinparam classAttributeIconSize 0
skinparam componentStyle uml2

package mongoose {
  class Schema

  class "model()" as model
  hide model circle
}

package buch.entity {
  class "validateBuch()" as validateBuch
  hide validateBuch circle

  class BuchModel
  hide BuchModel circle

  BuchModel ..> Schema
  BuchModel ..> model
  BuchModel ..> validateBuch

  BuchData ..> BuchArt
  BuchData ..> Verlag

  enum BuchArt {
    KINDLE
    DRUCKAUSGABE
  }

  enum Verlag {
    FOO_VERLAG
    BAR_VERLAG
  }

  interface BuchData <<entity>> {
    + _id?: string
    + __v?: number
    + createdAt?: number
    + updatedAt?: number
    + titel: string
    + rating?: number
    + art?: BuchArt
    + verlag: Verlag
    + preis: number
    + rabatt?: number
    + lieferbar?: boolean
    + datum?: Date
    + isbn: string
    + homepage?: string
    + schlagwoerter?: Array<string>
    + autoren: any
  }
}

hide empty members

footer (c) Jürgen Zimmermann

@enduml
