' Copyright (C) 2019 - present Juergen Zimmermann, Hochschule Karlsruhe
'
' This program is free software: you can redistribute it and/or modify
' it under the terms of the GNU General Public License as published by
' the Free Software Foundation, either version 3 of the License, or
' (at your option) any later version.
'
' This program is distributed in the hope that it will be useful,
' but WITHOUT ANY WARRANTY; without even the implied warranty of
' MERCHANTABILITY or FITNESS FOR A PARTICULAR PURPOSE.  See the
' GNU General Public License for more details.
'
' You should have received a copy of the GNU General Public License
' along with this program.  If not, see <https://www.gnu.org/licenses/>.
@startuml Anwendungskern

!pragma useNewPackage
skinparam classAttributeIconSize 0
skinparam componentStyle uml2

interface Promise<T>

package shared {
  class "sendMail()" as sendMail
  hide sendMail circle
}

package geamaelde {
  package entity {
    class GemaeldeModel
    hide GemaeldeModel circle

    class "validateGemaelde()" as validateGemaelde
    hide validateGemaelde circle

    interface GemaeldeData <<entity>>
  }

  package service #DDDDDD {
    GemaeldeService ..> Promise
    GemaeldeService ..> GemaeldeModel
    GemaeldeService ..> GemaeldeData
    GemaeldeService ..> validateGemaelde
    GemaeldeService ..> sendMail

    class GemaeldeService << control >> {
      + async findById(id: string): Promise<GemaeldeData | undefined>
      + async find(query?: any): Promise<Array<GemaeldeData>>
      + async create(gemaelde: GemaeldeData): Promise<GemaeldeData>
      + async update(gemaelde: GemaeldeData, version: string): Promise<GemaeldeData>
      + async delete(id: string): Promise<boolean>
    }
  }
}

hide empty members

footer (c) Kevin Schwab

@enduml
